<?xml version="1.0" encoding="utf-8"?>
<!-- Generator: Adobe Illustrator 23.0.3, SVG Export Plug-In . SVG Version: 6.00 Build 0)  -->
<svg version="1.1" xmlns="http://www.w3.org/2000/svg" xmlns:xlink="http://www.w3.org/1999/xlink" x="0px" y="0px"
	 viewBox="0 0 500 500" style="enable-background:new 0 0 500 500;" xml:space="preserve">
<style type="text/css">
	.st0{fill:#AA92D0;}
</style>
<g id="Слой_2">
</g>
<g id="Слой_3">
</g>
<g id="Слой_4">
</g>
<g id="Слой_5">
</g>
<g id="Слой_5__x28_копия_x29_">
</g>
<g id="Слой_8">
	<path class="st0" d="M458.03,8H41.97C18.79,8,0,26.79,0,49.97v317.06C0,390.21,18.79,409,41.97,409h49.37L98,480
		c0.11,1.06,0.66,4.96,4,8c2.3,2.1,4.82,2.77,6,3c1.94,0.64,5.53,1.53,10,1c4.16-0.49,7.27-1.99,9-3c38.7-26.67,77.4-53.33,116.1-80
		h214.93c23.18,0,41.97-18.79,41.97-41.97V49.97C500,26.79,481.21,8,458.03,8z M369,252.5c0,14.64-11.86,26.5-26.5,26.5h-188
		c-14.64,0-26.5-11.86-26.5-26.5v0c0-14.64,11.86-26.5,26.5-26.5h188C357.14,226,369,237.86,369,252.5L369,252.5z M424,163.5
		c0,14.64-11.86,26.5-26.5,26.5h-293C89.86,190,78,178.14,78,163.5v0c0-14.64,11.86-26.5,26.5-26.5h293
		C412.14,137,424,148.86,424,163.5L424,163.5z"/>
</g>
<g id="Слой_9">
</g>
</svg>
